ffmpeg version N-55863-g9f38fac053-static https://johnvansickle.com/ffmpeg/  Copyright (c) 2000-2021 the FFmpeg developers
  built with gcc 8 (Debian 8.3.0-6)
  configuration: --enable-gpl --enable-version3 --enable-static --disable-debug --disable-ffplay --disable-indev=sndio --disable-outdev=sndio --cc=gcc --enable-fontconfig --enable-frei0r --enable-gnutls --enable-gmp --enable-libgme --enable-gray --enable-libaom --enable-libfribidi --enable-libass --enable-libvmaf --enable-libfreetype --enable-libmp3lame --enable-libopencore-amrnb --enable-libopencore-amrwb --enable-libopenjpeg --enable-librubberband --enable-libsoxr --enable-libspeex --enable-libsrt --enable-libvorbis --enable-libopus --enable-libtheora --enable-libvidstab --enable-libvo-amrwbenc --enable-libvpx --enable-libwebp --enable-libx264 --enable-libx265 --enable-libxml2 --enable-libdav1d --enable-libxvid --enable-libzvbi --enable-libzimg
  libavutil      56. 64.100 / 56. 64.100
  libavcodec     58.119.100 / 58.119.100
  libavformat    58. 65.101 / 58. 65.101
  libavdevice    58. 11.103 / 58. 11.103
  libavfilter     7.100.100 /  7.100.100
  libswscale      5.  8.100 /  5.  8.100
  libswresample   3.  8.100 /  3.  8.100
  libpostproc    55.  8.100 / 55.  8.100
Input #0, mov,mp4,m4a,3gp,3g2,mj2, from '/home/yiaapc5/public_html/f_data/data_userfiles/user_uploads/3232170153/v/1614553269.mp4':
  Metadata:
    major_brand     : isom
    minor_version   : 0
    compatible_brands: mp41avc1
    creation_time   : 2021-02-28T22:59:34.000000Z
    playback_requirements: QuickTime 6.0 or greater
    playback_requirements-eng: QuickTime 6.0 or greater
    encoder         : vlc 3.0.11 stream output
    encoder-eng     : vlc 3.0.11 stream output
  Duration: 00:01:44.50, start: 0.000000, bitrate: 1206 kb/s
    Stream #0:0(eng): Audio: aac (LC) (mp4a / 0x6134706D), 44100 Hz, stereo, fltp, 109 kb/s (default)
    Metadata:
      creation_time   : 2021-02-28T22:59:34.000000Z
      handler_name    : SoundHandler
      vendor_id       : [0][0][0][0]
    Stream #0:1(eng): Video: h264 (Main) (avc1 / 0x31637661), yuv420p(tv), 722x364 [SAR 1:1 DAR 361:182], 1090 kb/s, 21.32 fps, 100 tbr, 1000k tbn, 60 tbc (default)
    Metadata:
      creation_time   : 2021-02-28T22:59:34.000000Z
      handler_name    : VideoHandler
      vendor_id       : [0][0][0][0]
Codec AVOption rc_eq (Set rate control equation. When computing the expression, besides the standard functions defined in the section 'Expression Evaluation', the following functions are available: bits2qp(bits), qp2bits(qp). Also the following constants are available: iTex pTex tex mv fCode iCount mcVar var isI isP isB avgQP qComp avgIITex avgPITex avgPPTex avgBPTex avgTex.) specified for output file #0 (/home/yiaapc5/public_html/f_data/data_userfiles/user_media/3232170153/v/bab3214a6faca5200db7689dd4e074b0.mob.nomob.mp4) has not been used for any stream. The most likely reason is either wrong type (e.g. a video option with no video streams) or that it is a private option of some encoder which was not actually used for any stream.
Stream mapping:
  Stream #0:1 -> #0:0 (h264 (native) -> h264 (libx264))
  Stream #0:0 -> #0:1 (aac (native) -> aac (native))
Press [q] to stop, [?] for help
[libx264 @ 0x73101c0] Application has requested 32 threads. Using a thread count greater than 16 is not recommended.
[libx264 @ 0x73101c0] using SAR=120/121
[libx264 @ 0x73101c0] frame MB size (30x15) > level limit (396)
[libx264 @ 0x73101c0] VBV bitrate (10000) > level limit (768)
[libx264 @ 0x73101c0] VBV buffer (10000) > level limit (2000)
[libx264 @ 0x73101c0] MB rate (13500) > level limit (11880)
[libx264 @ 0x73101c0] using cpu capabilities: MMX2 SSE2Fast SSSE3 SSE4.2 AVX
[libx264 @ 0x73101c0] profile Constrained Baseline, level 1.3, 4:2:0, 8-bit
[libx264 @ 0x73101c0] 264 - core 161 r3040 35417dc - H.264/MPEG-4 AVC codec - Copyleft 2003-2021 - http://www.videolan.org/x264.html - options: cabac=0 ref=1 deblock=1:0:0 analyse=0x1:0 me=hex subme=1 psy=1 psy_rd=1.00:0.00 mixed_ref=0 me_range=16 chroma_me=1 trellis=0 8x8dct=0 cqm=0 deadzone=21,11 fast_pskip=1 chroma_qp_offset=0 threads=32 lookahead_threads=1 sliced_threads=0 nr=0 decimate=1 interlaced=0 bluray_compat=0 constrained_intra=0 bframes=0 weightp=0 keyint=300 keyint_min=25 scenecut=40 intra_refresh=0 rc_lookahead=30 rc=abr mbtree=1 bitrate=1000 ratetol=1.0 qcomp=0.60 qpmin=10 qpmax=51 qpstep=4 vbv_maxrate=10000 vbv_bufsize=10000 nal_hrd=none filler=0 ip_ratio=1.41 aq=1:1.00
Output #0, mp4, to '/home/yiaapc5/public_html/f_data/data_userfiles/user_media/3232170153/v/bab3214a6faca5200db7689dd4e074b0.mob.nomob.mp4':
  Metadata:
    major_brand     : isom
    minor_version   : 0
    compatible_brands: mp41avc1
    encoder         : Lavf58.65.101
    playback_requirements: QuickTime 6.0 or greater
    playback_requirements-eng: QuickTime 6.0 or greater
    Stream #0:0(eng): Video: h264 (avc1 / 0x31637661), yuv420p(tv, progressive), 480x240 [SAR 120:121 DAR 240:121], q=2-31, 1000 kb/s, 30 fps, 15360 tbn (default)
    Metadata:
      creation_time   : 2021-02-28T22:59:34.000000Z
      handler_name    : VideoHandler
      vendor_id       : [0][0][0][0]
      encoder         : Lavc58.119.100 libx264
    Side data:
      cpb: bitrate max/min/avg: 10000000/0/1000000 buffer size: 10000000 vbv_delay: N/A
    Stream #0:1(eng): Audio: aac (LC) (mp4a / 0x6134706D), 44100 Hz, stereo, fltp, 109 kb/s (default)
    Metadata:
      creation_time   : 2021-02-28T22:59:34.000000Z
      handler_name    : SoundHandler
      vendor_id       : [0][0][0][0]
      encoder         : Lavc58.119.100 aac
frame=    1 fps=0.0 q=0.0 size=       0kB time=00:00:00.83 bitrate=   0.5kbits/s speed=41.1x    frame=  250 fps=0.0 q=10.0 size=     256kB time=00:00:09.05 bitrate= 231.7kbits/s dup=95 drop=0 speed=17.3x    frame=  501 fps=488 q=12.0 size=    1536kB time=00:00:17.29 bitrate= 727.5kbits/s dup=165 drop=0 speed=16.9x    frame=  744 fps=487 q=16.0 size=    3072kB time=00:00:25.33 bitrate= 993.5kbits/s dup=238 drop=0 speed=16.6x    frame=  914 fps=451 q=17.0 size=    3840kB time=00:00:31.11 bitrate=1011.1kbits/s dup=281 drop=0 speed=15.3x    frame= 1102 fps=436 q=19.0 size=    5120kB time=00:00:37.26 bitrate=1125.5kbits/s dup=331 drop=0 speed=14.7x    frame= 1316 fps=434 q=19.0 size=    5888kB time=00:00:44.53 bitrate=1083.1kbits/s dup=392 drop=0 speed=14.7x    frame= 1508 fps=427 q=20.0 size=    6912kB time=00:00:51.45 bitrate=1100.5kbits/s dup=443 drop=0 speed=14.6x    frame= 1770 fps=439 q=21.0 size=    8192kB time=00:00:59.60 bitrate=1125.9kbits/s dup=525 drop=0 speed=14.8x    frame= 2076 fps=458 q=21.0 size=    9728kB time=00:01:09.72 bitrate=1142.9kbits/s dup=616 drop=0 speed=15.4x    frame= 2297 fps=456 q=21.0 size=   10496kB time=00:01:17.32 bitrate=1112.0kbits/s dup=671 drop=0 speed=15.4x    frame= 2548 fps=460 q=19.0 size=   11264kB time=00:01:25.63 bitrate=1077.6kbits/s dup=757 drop=0 speed=15.5x    frame= 2766 fps=458 q=19.0 size=   12288kB time=00:01:32.85 bitrate=1084.1kbits/s dup=818 drop=0 speed=15.4x    frame= 2965 fps=452 q=20.0 size=   13312kB time=00:01:39.54 bitrate=1095.5kbits/s dup=868 drop=0 speed=15.2x    frame= 3140 fps=450 q=-1.0 Lsize=   14658kB time=00:01:44.63 bitrate=1147.6kbits/s dup=914 drop=2 speed=  15x    
video:13176kB audio:1395kB subtitle:0kB other streams:0kB global headers:0kB muxing overhead: 0.602189%
[libx264 @ 0x73101c0] frame I:15    Avg QP:12.32  size: 21101
[libx264 @ 0x73101c0] frame P:3125  Avg QP:13.35  size:  4216
[libx264 @ 0x73101c0] mb I  I16..4: 22.7%  0.0% 77.3%
[libx264 @ 0x73101c0] mb P  I16..4:  4.7%  0.0%  0.0%  P16..4: 41.8%  0.0%  0.0%  0.0%  0.0%    skip:53.6%
[libx264 @ 0x73101c0] final ratefactor: 12.81
[libx264 @ 0x73101c0] coded y,uvDC,uvAC intra: 60.8% 86.7% 75.4% inter: 21.7% 28.4% 18.0%
[libx264 @ 0x73101c0] i16 v,h,dc,p: 32% 44%  8% 16%
[libx264 @ 0x73101c0] i4 v,h,dc,ddl,ddr,vr,hd,vl,hu: 23% 34%  8%  5%  6%  6%  7%  5%  7%
[libx264 @ 0x73101c0] i8c dc,h,v,p: 24% 41% 23% 13%
[libx264 @ 0x73101c0] kb/s:1031.17
[aac @ 0x72fae80] Qavg: 527.970
